<svg width="24" height="24" viewBox="0 0 24 24" fill="none" xmlns="http://www.w3.org/2000/svg">
<path d="M13.2169 11.2514C14.3538 10.2964 15.5033 10.4 16.6655 11.5622L18.6816 13.5783C19.2779 14.1745 19.8034 14.4676 20.2582 14.4575C20.723 14.4474 21.2637 14.1341 21.8802 13.5177L22.2137 13.1842L23.8205 14.791L23.0322 15.5793C21.8802 16.7313 20.8165 17.3402 19.8413 17.4059C18.8711 17.4666 17.8757 16.9865 16.855 15.9658L15.1496 14.2604C14.5584 13.6692 14.0556 13.3534 13.6413 13.313C13.232 13.2675 12.7874 13.4848 12.3073 13.9648L10.2684 11.926C10.7485 11.4459 10.9557 10.9137 10.9102 10.5044C10.8647 10.085 10.5539 9.66477 9.95769 9.06852L8.51002 7.62085C7.51458 6.62541 7.05224 5.64766 7.12298 4.6876C7.19372 3.72754 7.80765 2.66894 8.96478 1.51181L9.75305 0.723549L11.3599 2.33039L11.0264 2.66389C10.4049 3.2854 10.0916 3.82607 10.0865 4.28589C10.0764 4.74066 10.3695 5.26617 10.9658 5.86242L12.8 7.69664C13.3558 8.25247 13.6489 8.79819 13.6792 9.3338C13.7095 9.86942 13.4796 10.4328 12.9895 11.024L13.2169 11.2514Z" fill="#CA0088"/>
<path d="M12.9196 12.9804C13.8746 14.1173 13.771 15.2668 12.6088 16.429L10.5927 18.4451C9.99643 19.0414 9.70336 19.5669 9.71346 20.0217C9.72357 20.4865 10.0369 21.0272 10.6533 21.6437L10.9868 21.9772L9.37997 23.584L8.59171 22.7957C7.43963 21.6437 6.83075 20.58 6.76506 19.6048C6.70442 18.6346 7.18445 17.6392 8.20515 16.6185L9.91053 14.9131C10.5017 14.3219 10.8175 13.8192 10.858 13.4048C10.9034 12.9955 10.6862 12.5509 10.2061 12.0708L12.245 10.032C12.725 10.512 13.1697 10.7293 13.579 10.6838C13.9984 10.6383 14.5062 10.3174 15.1025 9.7212L16.5501 8.27352C17.5456 7.27809 18.5233 6.81574 19.4834 6.88648C20.4434 6.95722 21.502 7.57116 22.6592 8.72829L23.4474 9.51655L21.8406 11.1234L21.5071 10.7899C20.8856 10.1684 20.3449 9.8551 19.8851 9.85005C19.4303 9.83994 18.9048 10.133 18.3086 10.7293L16.4743 12.5635C15.9185 13.1193 15.3728 13.4124 14.8372 13.4427C14.3016 13.473 13.7382 13.2431 13.147 12.753L12.9196 12.9804Z" fill="#CA0088"/>
<path d="M11.4273 12.9197C10.2903 13.8747 9.1408 13.7711 7.97861 12.609L5.96248 10.5928C5.36623 9.99658 4.84072 9.70351 4.38596 9.71362C3.92108 9.72372 3.38042 10.037 2.76395 10.6535L2.43046 10.987L0.823614 9.38012L1.61188 8.59186C2.76395 7.43978 3.8276 6.8309 4.80283 6.76521C5.773 6.70458 6.76843 7.18461 7.78913 8.20531L9.4945 9.91068C10.0857 10.5019 10.5885 10.8177 11.0028 10.8581C11.4121 10.9036 11.8568 10.6863 12.3368 10.2063L14.3757 12.2452C13.8956 12.7252 13.6784 13.1698 13.7238 13.5791C13.7693 13.9985 14.0902 14.5064 14.6864 15.1026L16.1341 16.5503C17.1295 17.5457 17.5919 18.5235 17.5211 19.4835C17.4504 20.4436 16.8365 21.5022 15.6793 22.6593L14.8911 23.4476L13.2842 21.8407L13.6177 21.5072C14.2392 20.8857 14.5525 20.3451 14.5576 19.8852C14.5677 19.4305 14.2746 18.905 13.6784 18.3087L11.8441 16.4745C11.2883 15.9187 10.9952 15.3729 10.9649 14.8373C10.9346 14.3017 11.1645 13.7383 11.6546 13.1471L11.4273 12.9197Z" fill="#CA0088"/>
<path d="M11.2513 11.1908C10.7384 9.8492 10.3998 8.9043 11.562 7.74212L13.5781 5.72599C14.1744 5.12974 14.4675 4.60423 14.4574 4.14946C14.4473 3.68459 14.134 3.14392 13.5175 2.52746L13.184 2.19396L14.7909 0.58712L15.5791 1.37538C16.7312 2.52746 17.3401 3.59111 17.4058 4.56633C17.4664 5.5365 16.9864 6.53194 15.9657 7.55263L14.2603 9.25801C13.6691 9.84921 13.3533 10.352 13.3129 10.7663C13.2674 11.1756 13.4847 11.6203 13.9647 12.1003L11.9258 14.1392C11.4458 13.6591 11.0011 13.4419 10.5918 13.4873C10.1724 13.5328 9.66462 13.8537 9.06837 14.4499L7.6207 15.8976C6.62526 16.893 5.64751 17.3554 4.68745 17.2846C3.72739 17.2139 2.66879 16.6 1.51166 15.4428L0.723398 14.6546L2.33024 13.0477L2.66374 13.3812C3.28525 14.0027 3.82592 14.316 4.28574 14.3211C4.74051 14.3312 5.26601 14.0381 5.86226 13.4419L7.69649 11.6076C8.25232 11.0518 8.79804 10.7587 9.33365 10.7284C9.86927 10.6981 10.4327 10.928 11.0239 11.4182L11.2513 11.1908Z" fill="#CA0088"/>
</svg>
