<svg width="99" height="84" viewBox="0 0 99 84" fill="none" xmlns="http://www.w3.org/2000/svg">
<path d="M65.991 6.29637C65.5541 6.21795 65.1043 6.65015 65.1841 7.0918C65.346 7.97627 65.8344 8.75991 66.0117 9.63966C66.1938 10.5507 66.0188 11.4841 66.1831 12.3892C66.2884 12.9694 66.9026 13.2312 67.3962 12.9075C69.6533 11.4263 68.6105 6.76101 65.991 6.29637Z" fill="#1D4CF2"/>
<path d="M65.1597 14.3053C64.9792 14.5086 64.7757 14.6903 64.5531 14.8466C64.3368 15.0105 64.1245 15.1951 63.8792 15.3148C63.3767 15.5589 63.518 16.4139 64.1352 16.3119C64.5951 16.2352 65.0349 16.076 65.366 15.7376C65.6734 15.4215 65.8324 15.0542 65.9359 14.6314C66.0417 14.1892 65.4109 13.9981 65.1597 14.3053Z" fill="#1D4CF2"/>
<path d="M12.1415 12.8964C11.4161 12.8846 10.9201 12.8799 10.3922 13.4548C9.90392 13.9854 9.77268 14.6447 9.84953 15.3469C9.8986 15.7921 10.5696 16.0333 10.8356 15.6194C11.0815 15.2361 11.3972 14.8941 11.6632 14.522C11.8087 14.3174 11.973 14.127 12.0611 13.887C12.1385 13.6759 12.164 13.4742 12.3029 13.2861C12.3992 13.1529 12.336 12.8999 12.1415 12.8964Z" fill="#1D4CF2"/>
<path d="M89.4964 33.0069C89.2357 32.1814 88.5618 31.1537 87.6006 31.1171C87.0998 31.0976 86.5365 31.4762 86.6494 32.054C86.7676 32.6437 87.1814 33.083 87.3629 33.6514C87.5321 34.1749 87.6482 34.7139 87.7093 35.2605C87.7685 35.9091 88.5884 36.0501 88.9786 35.6143C89.662 34.8419 89.8044 33.9798 89.4964 33.0069Z" fill="#1D4CF2"/>
<path d="M88.8231 37.5874C88.7231 37.0945 88.1799 36.8097 87.743 37.1257C87.6054 37.2309 87.4878 37.3599 87.396 37.5066C87.3528 37.578 87.3108 37.6505 87.2695 37.723L87.2535 37.7513C87.2198 37.805 87.1837 37.8569 87.1495 37.91C86.9999 38.1458 86.9307 38.3817 86.6925 38.5922C86.4808 38.7803 86.3886 39.0639 86.5388 39.3239C86.673 39.5551 86.9828 39.7013 87.2435 39.5781C87.6265 39.3982 88.0439 39.2007 88.3318 38.8858C88.6321 38.5574 88.9153 38.0444 88.8231 37.5874Z" fill="#1D4CF2"/>
<path d="M85.5183 66.2423C84.3106 69.0394 82.3005 71.4178 79.7408 73.0781C77.0043 74.8405 73.7505 75.6295 70.5056 75.3989C68.5727 75.2614 66.6845 74.7541 64.9439 73.9048C64.329 73.604 63.8035 74.4696 64.4018 74.8299C64.356 74.8023 64.3184 74.763 64.293 74.7161C64.3034 74.7307 64.3126 74.7461 64.3208 74.7621C64.3208 74.7621 64.3107 74.7185 64.3391 74.8211C64.3727 74.946 64.398 75.0731 64.4148 75.2014C64.4602 75.6151 64.4799 76.0312 64.4739 76.4473C64.4739 77.3377 64.4325 78.2304 64.348 79.1172C64.196 80.7093 63.2838 83.0372 61.1893 82.7937C59.5932 82.6079 57.6618 82.375 56.0651 81.8031C55.3232 81.5365 55.0483 80.7264 54.9088 79.9716C54.7095 78.8949 54.7663 77.784 54.7166 76.6956C54.6628 75.5257 54.382 74.3959 54.0409 73.2756C53.644 71.9646 53.1243 70.6938 52.4885 69.4801C51.2731 67.1804 49.4948 64.9398 47.158 63.6897C46.1057 63.1278 44.9505 62.8719 43.7599 62.8754C42.4138 62.879 41.0754 63.1013 39.7258 63.1113C36.8156 63.1422 33.9149 62.7761 31.1042 62.0234C28.5291 61.3282 25.9504 60.2951 23.9972 58.4266C22.4359 56.9324 21.4356 55.0107 20.9704 52.9128C20.8584 52.405 20.775 51.8914 20.7203 51.3744C20.6476 50.6957 19.5729 50.6886 19.6462 51.3744C19.8874 53.6257 20.5637 55.8351 21.921 57.6759C23.523 59.8488 25.8055 61.2863 28.3056 62.2433C31.1468 63.3312 34.1948 63.8997 37.2246 64.1066C38.6909 64.2122 40.163 64.2122 41.6293 64.1066C42.9453 64.007 44.2459 63.8018 45.5399 64.175C46.8068 64.54 47.9046 65.3808 48.8381 66.2883C49.8643 67.2907 50.7026 68.4576 51.3943 69.7083C52.6416 71.9648 53.5911 74.5941 53.662 77.1873C53.7117 79.0246 53.5237 81.9404 55.6129 82.7713C56.5138 83.1292 57.5046 83.2884 58.4552 83.4541C59.3467 83.6113 60.2419 83.7455 61.1409 83.8568C63.4943 84.1516 65.0248 81.9068 65.3382 79.8165C65.4635 78.9775 65.5078 78.1213 65.5338 77.274C65.5604 76.4131 65.6036 75.4844 65.4002 74.6389C65.3311 74.3505 65.2075 74.0645 64.9427 73.9048L64.4006 74.8299C67.6746 76.4257 71.3857 76.8978 74.9565 76.1725C78.2079 75.5092 81.1986 73.7803 83.4486 71.3539C84.6987 70.01 85.7115 68.4644 86.4441 66.783C86.7154 66.1568 85.7938 65.6108 85.5171 66.2423H85.5183Z" fill="#1D4CF2"/>
<path d="M44.478 63.6097C50.3175 61.895 56.3823 62.6073 62.2922 63.5307C65.0216 63.9582 67.7676 64.3173 70.4852 64.8173C73.0326 65.2855 75.5693 65.8197 78.1426 66.1299C80.9306 66.4665 83.832 66.5479 86.5485 65.7295C87.2082 65.5302 86.9274 64.4959 86.2629 64.6964C83.877 65.4158 81.3485 65.391 78.8905 65.1416C76.3005 64.8792 73.7473 64.3409 71.1946 63.8633C68.506 63.3603 65.7913 63.0047 63.0903 62.5784C60.1557 62.115 57.2094 61.6698 54.2387 61.523C50.8561 61.3555 47.4509 61.6202 44.1924 62.5766C43.5309 62.7712 43.8123 63.8049 44.478 63.6097Z" fill="#1D4CF2"/>
<path d="M50.9249 62.3629C51.1123 64.2734 52.4212 65.9102 54.2733 66.4686L53.9529 65.6814C52.618 68.2759 53.8938 71.4747 56.6995 72.3609C57.023 72.4567 57.3553 72.5205 57.6914 72.5514C57.9841 72.5832 58.3104 72.5832 58.5545 72.7701C58.8306 72.9812 59.0133 73.3285 59.271 73.5674C59.8697 74.1203 60.6018 74.5091 61.3959 74.6957C62.1901 74.8823 63.0192 74.8605 63.8023 74.6323C64.4639 74.4389 64.1825 73.4046 63.5168 73.5992C62.9996 73.7502 62.4555 73.7862 61.9228 73.7047C61.3902 73.6232 60.8819 73.4262 60.4339 73.1275C59.9385 72.7996 59.6618 72.2878 59.2072 71.927C58.7526 71.5661 58.191 71.5466 57.6305 71.4747C55.153 71.1563 53.7436 68.4298 54.8798 66.2233C55.04 65.912 54.9041 65.5405 54.5588 65.4367C53.1991 65.024 52.1386 63.7857 51.9991 62.3641C51.9323 61.6842 50.8575 61.6771 50.9249 62.3641V62.3629Z" fill="#1D4CF2"/>
<path d="M20.8916 50.2347C20.6894 46.6208 21.2805 42.3046 24.8216 40.4136C25.5801 40.0085 26.3652 39.8534 27.2159 39.8003C27.6604 39.7726 28.0961 39.7196 28.5017 39.5232C28.9226 39.3204 29.2637 38.986 29.6142 38.6847C30.8675 37.6051 32.4182 36.9217 34.0403 36.621C35.6673 36.3226 37.3436 36.4411 38.9121 36.9653C39.7581 37.2495 40.4604 37.7531 41.2679 38.1069C42.1653 38.4996 42.9469 38.2 43.6444 37.5815C45.1035 36.2884 46.5412 35.056 48.3147 34.2017C49.9859 33.398 51.8434 32.9976 53.6943 33.188C54.6852 33.2849 55.6463 33.5807 56.5195 34.0578C57.4063 34.5501 58.2114 35.3804 59.2483 34.6858C59.6663 34.4057 60.0204 34.0165 60.4035 33.6916C60.8086 33.3426 61.2381 33.0228 61.6887 32.7346C62.5813 32.1744 63.594 31.7876 64.654 32.0394C64.7336 32.0599 64.8169 32.0622 64.8976 32.0459C64.9782 32.0297 65.0541 31.9955 65.1196 31.9457C65.185 31.896 65.2383 31.8321 65.2754 31.7589C65.3125 31.6856 65.3325 31.6049 65.3338 31.5229C65.3929 29.5098 66.9424 27.7627 68.9104 27.3889C69.5885 27.2598 69.3012 26.2273 68.6249 26.3558C66.1857 26.8193 64.33 29.0629 64.2603 31.5229L64.9395 31.0069C62.9473 30.5352 61.1655 31.6556 59.7018 32.8856C59.3689 33.1656 59.0627 33.5135 58.7062 33.7612C58.238 34.0861 57.8195 33.6008 57.4269 33.3484C56.6473 32.8584 55.7891 32.5055 54.8897 32.3054C50.972 31.4156 47.1649 33.1651 44.2055 35.6404C43.8378 35.9482 43.4825 36.2689 43.1325 36.5962C42.8322 36.8769 42.4763 37.2702 42.0252 37.2324C41.5742 37.1947 41.145 36.8114 40.7607 36.6056C40.3739 36.401 39.9747 36.2206 39.5654 36.0655C37.9379 35.4417 36.1366 35.2648 34.4139 35.4871C32.7267 35.7047 31.0762 36.2967 29.6846 37.2802C28.9409 37.805 28.3249 38.6364 27.369 38.7201C26.4438 38.8021 25.6079 38.8882 24.746 39.2649C22.9648 40.0444 21.5696 41.5999 20.7934 43.3583C19.8399 45.5169 19.6891 47.9074 19.8198 50.2347C19.8582 50.9199 20.9323 50.9246 20.8933 50.2347H20.8916Z" fill="#1D4CF2"/>
<path d="M25.5942 47.5984C29.2813 51.0012 35.2166 51.5396 39.4358 48.7971L39.022 48.8514C42.2699 49.3278 45.7743 49.2411 48.9134 48.2028C51.2976 47.4132 53.7238 45.8672 54.312 43.2651L53.3306 43.393C55.7018 46.5966 60.3389 46.5105 63.9066 46.037C67.4956 45.56 70.925 44.2333 73.694 41.87C75.4912 40.3369 76.9283 38.4205 78.0373 36.3444C78.3619 35.7359 77.4349 35.1946 77.1098 35.8037C75.3481 39.1057 72.7422 41.8181 69.3271 43.4148C66.4079 44.7793 63.014 45.3259 59.8039 45.1749C57.794 45.0806 55.5197 44.5576 54.2582 42.8523C54.0057 42.5121 53.3874 42.4897 53.2768 42.9803C52.8796 44.738 51.472 45.9073 49.9072 46.6597C48.0024 47.5748 45.8045 47.9144 43.7117 48.0217C42.5307 48.0822 41.3468 48.0509 40.1706 47.928C39.862 47.8956 39.5464 47.823 39.2372 47.8101C38.9635 47.7983 38.7938 47.9439 38.5692 48.0789C38.1716 48.3203 37.7566 48.532 37.3277 48.7122C35.6376 49.4133 33.7494 49.6309 31.938 49.3962C29.8689 49.1285 27.8885 48.2564 26.3562 46.8425C25.8496 46.3749 25.0882 47.1302 25.5966 47.5996L25.5942 47.5984Z" fill="#1D4CF2"/>
<path d="M29.7675 51.4539C28.4704 52.4946 28.1589 54.5254 29.0326 55.9246C29.1065 56.0452 29.2242 56.1325 29.3612 56.1683C29.4982 56.2042 29.6438 56.1857 29.7675 56.1168C30.0128 55.9736 30.1139 55.6304 29.9602 55.3839C29.9147 55.3108 29.8709 55.2365 29.8325 55.1598C29.8171 55.1292 29.8023 55.1009 29.7876 55.0667C29.826 55.148 29.7793 55.0455 29.7728 55.0289C29.7154 54.8758 29.6715 54.718 29.6415 54.5572C29.6415 54.5572 29.6191 54.4139 29.6273 54.4759C29.6356 54.5378 29.6208 54.4063 29.6197 54.3939C29.6126 54.3078 29.6096 54.2217 29.6096 54.1362C29.6096 54.0507 29.6132 53.9811 29.6191 53.9039C29.6226 53.8609 29.6268 53.8178 29.6321 53.7754C29.622 53.8538 29.6321 53.7754 29.6398 53.7388C29.6682 53.5775 29.7095 53.4188 29.7633 53.2641C29.7745 53.2317 29.787 53.1999 29.7988 53.1674C29.8544 53.0153 29.7757 53.2134 29.8147 53.1291C29.8538 53.0448 29.8886 52.9746 29.933 52.8997C29.9773 52.8248 30.0116 52.7671 30.0548 52.7028C30.0548 52.7063 30.1346 52.5902 30.1026 52.632C30.0707 52.6739 30.1494 52.5731 30.157 52.566C30.2696 52.4369 30.3939 52.3185 30.5283 52.2122C30.7547 52.0306 30.7181 51.6438 30.5283 51.4545C30.3048 51.2316 29.9962 51.2729 29.7692 51.4545L29.7675 51.4539Z" fill="#1D4CF2"/>
<path d="M40.3438 57.484C40.9698 57.688 41.5433 57.4221 42.1404 57.2523C42.8758 57.0442 43.5651 57.3702 44.2349 57.6609C45.6111 58.2582 46.9543 58.5961 48.4617 58.3797C49.929 58.1686 51.1267 57.4681 52.2452 56.5282C52.7861 56.0724 53.3335 55.5771 53.9998 55.3112C54.5803 55.0795 55.2087 55.0482 55.8247 55.1107C57.1253 55.2434 58.3567 55.7682 59.6348 56.0194C61.0365 56.2941 62.285 56.1679 63.5584 55.504C64.2637 55.1361 64.9346 54.7487 65.7374 54.6366C66.5255 54.527 67.3336 54.6366 68.1021 54.8135C69.4801 55.1313 70.7896 55.7676 72.1918 55.9675C73.5675 56.1638 74.9762 56.0712 76.3365 55.8088C77.6578 55.5541 79.0086 55.1131 80.1111 54.3241C80.6674 53.9255 80.1318 52.9962 79.569 53.399C77.6915 54.7428 75.0318 55.1608 72.7706 54.9645C71.4464 54.8465 70.2114 54.2675 68.9392 53.9202C67.4613 53.5175 65.8569 53.3099 64.3967 53.8937C63.6973 54.1738 63.073 54.6172 62.3684 54.8813C61.7772 55.1019 61.163 55.142 60.5411 55.0818C59.2588 54.9574 58.0434 54.4474 56.7877 54.1885C55.5215 53.9273 54.2292 53.9267 53.074 54.5747C51.8403 55.267 50.9624 56.4362 49.6251 56.971C48.097 57.5819 46.4855 57.4699 44.9916 56.8283C44.2579 56.5135 43.4681 56.0942 42.6494 56.0931C42.2947 56.0931 41.9441 56.1892 41.6089 56.2977C41.2938 56.3997 40.9628 56.5589 40.6323 56.4516C39.9737 56.2369 39.6917 57.2712 40.3468 57.484H40.3438Z" fill="#1D4CF2"/>
<path d="M16.9198 29.0299C19.7444 29.5512 21.8939 27.3465 23.4162 25.2827C24.2006 24.2161 24.9532 23.1011 25.973 22.2414C27.0152 21.3646 28.3406 20.9312 29.6837 20.8068C31.2698 20.6593 32.8666 20.8492 34.4385 21.0544C34.7282 21.0921 34.9705 20.7814 34.9753 20.519C34.9788 20.1988 34.7246 20.0208 34.4385 19.9836C31.7912 19.6381 28.8927 19.335 26.4429 20.6381C24.0452 21.9153 23.0053 24.505 21.1532 26.3453C20.1281 27.3636 18.7181 28.2781 17.2065 27.9963C16.5308 27.8713 16.2412 28.9038 16.921 29.0288L16.9198 29.0299Z" fill="#1D4CF2"/>
<path d="M35.9324 9.50869C37.2726 8.90253 38.8918 9.58062 39.3777 10.9663C39.9051 12.4687 38.8392 13.8844 38.0399 15.0726C36.4887 17.3816 34.6602 19.8228 34.9777 22.7669C35.129 24.1844 35.732 25.4598 36.9025 26.3095C37.4629 26.7151 37.9991 25.7864 37.4446 25.3849C36.4083 24.6337 36.0104 23.3211 36.0146 22.0935C36.0205 20.6147 36.6164 19.2714 37.3684 18.0249C38.7943 15.6581 42.0143 12.5377 39.8844 9.6673C38.8362 8.25215 36.964 7.87242 35.3915 8.58471C34.7625 8.86892 35.3081 9.7923 35.933 9.50986L35.9324 9.50869Z" fill="#1D4CF2"/>
<path d="M47.6647 5.93212C49.2213 7.0094 50.1796 8.85263 50.2014 10.7366C50.2097 11.4253 51.2833 11.427 51.2756 10.7366C51.249 8.4558 50.0802 6.3036 48.2062 5.00697C47.9698 4.84246 47.6103 4.96333 47.472 5.19919C47.3159 5.46571 47.4259 5.76643 47.6647 5.93212Z" fill="#1D4CF2"/>
<path d="M54.3623 9.09392C51.8989 8.81443 49.8375 11.1577 49.1168 13.2804C48.9318 13.8241 48.8183 14.4226 48.875 14.998C48.9034 15.2858 49.1014 15.5334 49.4118 15.5334C49.6802 15.5334 49.9776 15.2876 49.9486 14.998C49.9351 14.8609 49.9312 14.723 49.9368 14.5853C49.9368 14.5128 49.9456 14.4402 49.9533 14.3683C49.9663 14.2504 49.9462 14.3972 49.9657 14.2875C50.0176 13.9904 50.0967 13.6987 50.2022 13.416C50.4289 12.8246 50.7482 12.2727 51.1481 11.7809C51.9603 10.7886 53.0765 10.0208 54.3569 10.1659C54.6454 10.1989 54.8943 9.89643 54.8943 9.6305C54.8943 9.31386 54.6466 9.12754 54.3569 9.0951L54.3623 9.09392Z" fill="#1D4CF2"/>
<path d="M49.119 13.4722C47.2273 14.1638 45.8451 15.6975 45.0991 17.5407C44.204 19.7519 44.3802 22.2443 44.9217 24.5174C45.0819 25.1878 46.1176 24.9036 45.9574 24.2326C45.4768 22.216 45.3148 20.0544 46.039 18.0732C46.6125 16.5041 47.8072 15.089 49.4045 14.5052C50.0483 14.2694 49.7699 13.2345 49.119 13.4728V13.4722Z" fill="#1D4CF2"/>
<path d="M14.4621 18.1745C14.7329 16.6638 15.3051 15.2086 16.3089 14.0287C17.2063 12.9744 18.3532 12.1814 19.6195 11.6236C21.0022 11.0127 22.5753 10.6247 24.0911 10.6459C25.0824 10.6618 26.0638 10.846 26.9931 11.1908C27.4217 11.3482 27.8344 11.6035 28.3055 11.5752C28.7477 11.5457 29.0421 11.255 29.2839 10.9136C30.3332 9.43302 32.2061 9.41297 33.869 9.45601C34.5607 9.4737 34.5601 8.40232 33.869 8.38463C32.303 8.34453 30.526 8.38463 29.2319 9.38703C28.9328 9.62293 28.6723 9.90382 28.4598 10.2196C28.328 10.4107 28.3043 10.5026 28.0827 10.4814C27.8155 10.4561 27.456 10.2202 27.2036 10.1276C26.253 9.79204 25.2557 9.60642 24.2477 9.57748C21.2168 9.48078 17.8424 10.778 15.7769 13.0151C14.5213 14.3748 13.7515 16.0783 13.4264 17.8897C13.3082 18.5637 14.3404 18.8526 14.4621 18.1745Z" fill="#1D4CF2"/>
<path d="M55.0519 9.42957C55.341 7.75439 56.4773 6.49314 57.9918 5.77377C59.1848 5.20889 60.8176 4.90758 62.0626 5.45123C62.6892 5.72483 63.2367 4.80262 62.6041 4.52608C60.9849 3.8185 59.0973 4.09387 57.5295 4.81147C55.756 5.624 54.3526 7.19423 54.0162 9.14241C53.898 9.81638 54.9343 10.1065 55.0519 9.42721V9.42957Z" fill="#1D4CF2"/>
<path d="M46.4035 26.0264C47.6875 26.0477 48.9574 26.7057 49.6685 27.7836C50.045 28.3642 50.2651 29.0317 50.3076 29.7218C50.3502 30.412 50.2138 31.1014 49.9115 31.7236C49.6065 32.3398 50.5322 32.8828 50.8385 32.2643C51.6206 30.6876 51.5768 28.7306 50.5955 27.2435C50.134 26.5527 49.5116 25.9838 48.7816 25.5852C48.0515 25.1867 47.2356 24.9705 46.4035 24.9551C45.7118 24.9439 45.7118 26.0164 46.4035 26.0264Z" fill="#1D4CF2"/>
<path d="M37.8213 27.4391C39.5061 28.2486 39.8774 30.379 38.5526 31.7057C37.9726 32.2865 37.2869 32.8184 37.1278 33.6734C36.9759 34.4912 37.262 35.358 37.9052 35.8958C38.432 36.3362 39.1952 35.5821 38.6649 35.1386C37.9951 34.5785 38.0412 33.7465 38.6135 33.1374C39.2584 32.451 39.9199 31.9198 40.2474 31.0011C40.867 29.2664 40.011 27.3064 38.3634 26.5145C37.7433 26.2197 37.1982 27.1401 37.8213 27.4391Z" fill="#1D4CF2"/>
<path d="M25.2208 29.7054C25.8977 30.0344 26.606 30.3846 27.1173 30.9519C27.7002 31.6005 27.5465 32.3995 27.657 33.1972C27.7734 33.992 28.0746 34.7486 28.5365 35.4065C28.9985 36.0645 29.6083 36.6055 30.3173 36.9863C30.9274 37.3094 31.4707 36.3855 30.8594 36.0612C30.1702 35.6997 29.598 35.1504 29.2095 34.4774C28.7956 33.7562 28.6993 33.0257 28.665 32.209C28.6295 31.3676 28.3399 30.6423 27.7327 30.0485C27.1705 29.4978 26.4611 29.1216 25.7594 28.7802C25.141 28.4795 24.596 29.4029 25.2179 29.7054H25.2208Z" fill="#1D4CF2"/>
<path d="M14.475 28.4079C11.6374 27.9504 8.58994 28.1567 6.30449 30.0719C4.38733 31.6793 3.57625 34.3763 4.72548 36.6759C5.31665 37.8552 6.38075 38.5345 7.57609 39.0074C8.71232 39.4567 10.1311 39.7887 10.8181 40.9037C11.1988 41.5211 11.038 42.1549 10.9363 42.8283C10.8358 43.466 10.8559 44.1167 10.9954 44.747C11.2809 46.0189 12.0489 47.1764 13.0007 48.0526C13.8851 48.8624 14.908 49.5073 16.0209 49.9565C17.1743 50.4129 18.4536 50.4454 19.6779 50.4483C20.369 50.4483 20.3702 49.3793 19.6779 49.3775C18.6782 49.3775 17.6549 49.3622 16.6931 49.0609C15.8702 48.8026 15.1117 48.3114 14.4094 47.8226C13.4594 47.1587 12.6359 46.2011 12.2221 45.1102C12.0197 44.587 11.924 44.0287 11.9407 43.4681C11.9649 42.8112 12.1967 42.1756 12.1287 41.514C12.0104 40.3748 11.1704 39.5092 10.2168 38.9543C9.13973 38.3305 7.86754 38.1288 6.81703 37.4561C4.86618 36.206 4.8845 33.4264 6.18862 31.7271C8.04903 29.303 11.3779 28.9917 14.1859 29.4439C14.8622 29.553 15.1531 28.5212 14.4715 28.4115L14.475 28.4079Z" fill="#1D4CF2"/>
<path d="M9.18137 28.7067C8.68715 26.3482 8.29934 23.5904 9.70692 21.4541C10.8745 19.6852 13.2001 18.7871 15.2592 19.2606C15.9319 19.4157 16.2186 18.3832 15.5447 18.2282C13.0724 17.6591 10.4175 18.6627 8.92362 20.7047C7.18381 23.0886 7.57989 26.291 8.14623 28.991C8.28752 29.6655 9.32266 29.3801 9.18137 28.7067Z" fill="#1D4CF2"/>
<path d="M70.6029 9.76218C71.4341 13.0088 69.9255 16.4871 67.3515 18.5255C66.0042 19.591 64.3454 20.0143 62.8728 20.854C61.3163 21.7414 60.2084 23.2716 60.4006 25.126C60.614 27.1868 62.3461 28.734 64.4099 28.8018C65.1015 28.8248 65.1003 27.754 64.4099 27.731C63.9967 27.7187 63.5904 27.6227 63.2156 27.4487C62.8408 27.2748 62.5055 27.0265 62.23 26.7192C61.9545 26.4118 61.7447 26.0517 61.6132 25.6608C61.4817 25.2699 61.4314 24.8564 61.4653 24.4455C61.6166 22.6512 63.2388 21.7921 64.7167 21.1476C66.207 20.499 67.5933 19.8375 68.7792 18.6977C69.9428 17.5733 70.8311 16.1967 71.375 14.6745C71.979 13.0069 72.072 11.1978 71.6422 9.47738C71.4714 8.8099 70.4356 9.09293 70.6071 9.76218H70.6029Z" fill="#1D4CF2"/>
<path d="M70.8122 16.2745C74.3273 14.6725 78.6482 15.9903 80.6256 19.2977C81.5591 20.8584 81.8978 22.6303 81.6832 24.4276C81.4586 26.308 80.8556 28.1506 80.1556 29.9036C79.4552 31.6549 78.6267 33.3526 77.6769 34.9828C77.3304 35.5801 78.258 36.1202 78.6044 35.5235C80.5429 32.1832 82.2543 28.4201 82.7426 24.562C83.2516 20.5259 81.001 16.5128 77.1336 15.0746C74.9132 14.2491 72.419 14.3712 70.2725 15.3494C69.6447 15.6354 70.1897 16.5593 70.814 16.2745H70.8122Z" fill="#1D4CF2"/>
<path d="M80.708 53.927C84.2059 51.6964 86.0102 47.3135 85.0986 43.2745L84.5807 43.9526C86.5676 43.919 88.5084 43.1135 89.906 41.6966C91.3561 40.2272 92.0868 38.1959 92.2358 36.1663C92.5101 32.4156 90.5752 28.2827 86.7533 27.1695C84.7693 26.5916 82.6033 26.91 80.9746 28.2037C80.4343 28.633 81.1986 29.3866 81.7342 28.9614C82.9438 28.0003 84.6073 27.7668 86.0888 28.1041C87.6678 28.4638 88.9891 29.4437 89.8646 30.7958C91.6736 33.5913 91.7078 37.7383 89.6181 40.407C88.4156 41.9401 86.5263 42.8488 84.5807 42.8835C84.4985 42.8851 84.4178 42.9051 84.3444 42.9422C84.2711 42.9793 84.2072 43.0324 84.1574 43.0977C84.1076 43.1629 84.0732 43.2385 84.0568 43.3188C84.0404 43.3992 84.0425 43.4822 84.0629 43.5616C84.8663 47.1196 83.2459 51.0407 80.1665 53.0042C79.5859 53.3745 80.1239 54.3014 80.708 53.9294V53.927Z" fill="#1D4CF2"/>
<path d="M85.0182 44.4335C86.9408 44.9222 88.5902 46.1523 89.6039 47.8535C90.7306 49.7403 90.9754 52.0453 90.4475 54.1627C90.2808 54.8319 91.3159 55.1173 91.4826 54.4475C92.0791 52.0582 91.8036 49.4479 90.5308 47.3128C89.3834 45.3893 87.4839 43.9424 85.3037 43.3987C84.6333 43.2318 84.3472 44.2643 85.0182 44.4318V44.4335Z" fill="#1D4CF2"/>
<path d="M90.9149 50.3428C92.365 50.9948 93.9761 51.2044 95.5455 50.9454C95.8316 50.8988 95.9912 50.5438 95.9203 50.2862C95.8369 49.9825 95.5473 49.8657 95.26 49.9123C93.971 50.117 92.6502 49.9452 91.457 49.4176C91.1921 49.2997 90.8794 49.3415 90.7221 49.6098C90.588 49.8386 90.6488 50.2237 90.9149 50.3428Z" fill="#1D4CF2"/>
<path d="M78.3496 65.807C81.9025 65.8942 84.3836 62.5563 84.2335 59.1929L83.5536 59.7089C87.6676 61.1388 92.4773 60.0108 95.5414 56.9299C96.0285 56.4399 95.27 55.6822 94.7823 56.1728C91.9701 58.9995 87.6037 59.9848 83.8392 58.6764C83.517 58.5644 83.1446 58.8604 83.1593 59.1929C83.2841 61.9819 81.3344 64.8093 78.3496 64.7356C77.6579 64.7185 77.6585 65.7899 78.3496 65.807Z" fill="#1D4CF2"/>
<path d="M36.1126 54.3809C37.2133 55.957 38.8851 57.0986 40.7769 57.4948C41.06 57.5538 41.3568 57.4117 41.4372 57.121C41.5105 56.8551 41.3473 56.5219 41.0618 56.4624C39.4503 56.1245 37.9842 55.1929 37.0419 53.8402C36.8763 53.6044 36.5689 53.4941 36.3076 53.648C36.0712 53.7854 35.9482 54.1421 36.1149 54.3809H36.1126Z" fill="#1D4CF2"/>
<path d="M38.3958 56.1451C36.9001 57.3444 36.2676 59.4724 36.8144 61.2986C37.0125 61.9572 38.0488 61.6765 37.8501 61.0138C37.4056 59.5344 37.9258 57.8887 39.1554 56.9028C39.3813 56.7212 39.3446 56.3344 39.1554 56.1451C38.932 55.9222 38.6234 55.9635 38.3958 56.1451Z" fill="#1D4CF2"/>
<path d="M29.4264 49.7644C29.1613 50.4595 29.0574 51.2053 29.1223 51.9461C29.1264 52.0872 29.1824 52.2219 29.2797 52.3246C29.3811 52.424 29.5172 52.4803 29.6595 52.4815C29.9292 52.4697 30.2239 52.2456 30.1972 51.9461C30.181 51.7697 30.1749 51.5925 30.1789 51.4154C30.1789 51.3399 30.1848 51.2644 30.1907 51.189C30.1943 51.1388 30.199 51.0887 30.2043 51.0386C30.2085 51.0003 30.2392 50.8912 30.2043 51.0309C30.244 50.8729 30.2599 50.7084 30.3008 50.5492C30.3448 50.3786 30.3988 50.2106 30.4623 50.0462C30.5628 49.7838 30.3511 49.4472 30.0872 49.3876C29.7802 49.3174 29.534 49.4808 29.4264 49.7614V49.7644Z" fill="#1D4CF2"/>
<path d="M4.33561 38.0865C1.20537 40.954 2.9103 45.7796 5.16029 48.6105C7.30682 51.3111 10.6369 53.3277 14.1579 53.343C16.3937 53.353 18.4539 52.4916 20.1984 51.1354C20.7429 50.712 19.9779 49.9561 19.4388 50.3783C18.0679 51.4438 16.4173 52.1608 14.6704 52.2587C13.1133 52.3459 11.5579 51.9833 10.1616 51.2999C7.39313 49.9437 5.09053 47.4672 4.10978 44.5325C3.46481 42.6032 3.49969 40.3083 5.09585 38.8448C5.60544 38.3778 4.8446 37.6219 4.3362 38.0877L4.33561 38.0865Z" fill="#1D4CF2"/>
<path d="M4.28784 38.4954C2.18979 36.3285 1.00272 33.3566 1.0713 30.34C1.13751 27.4101 2.41621 24.5332 4.5249 22.4977C5.04572 21.9953 5.63275 21.5449 6.01819 20.921C6.44088 20.237 6.48344 19.4304 6.64897 18.6639C6.95275 17.2635 7.49888 15.9266 8.26286 14.7132C9.84658 12.1942 12.303 10.3434 15.1653 9.51255C16.6527 9.08116 18.2078 8.93097 19.7504 9.06973C20.5438 9.14225 21.3466 9.34745 22.1151 9.01961C22.776 8.73658 23.2147 8.16226 23.7048 7.66342C25.5876 5.74354 28.2337 4.61378 30.9129 4.46518C32.2691 4.38373 33.6284 4.56186 34.9175 4.98997C35.6771 5.24529 36.3889 5.52065 37.1734 5.18927C37.8112 4.92039 38.2824 4.3903 38.8038 3.95396C40.7606 2.31416 43.2854 1.35952 45.8192 1.13251C48.3931 0.896649 51.0451 1.35068 53.34 2.55709C53.9145 2.85763 54.4637 3.20389 54.9823 3.59251C55.5144 3.99347 55.995 4.53594 56.6488 4.73996C57.3257 4.95282 57.9772 4.65328 58.6393 4.53594C59.1974 4.43388 59.7659 4.39923 60.3324 4.43275C60.7409 4.4587 61.3462 4.52415 61.6063 4.89032C62.0024 5.44812 62.9335 4.9139 62.5333 4.34961C61.831 3.3596 60.4607 3.28825 59.3498 3.37434C58.6842 3.42741 58.0723 3.60371 57.4215 3.72341C56.7056 3.85431 56.1434 3.13789 55.6249 2.74342C53.4618 1.09831 50.7874 0.207943 48.0857 0.0310494C45.403 -0.142896 42.6559 0.414909 40.2823 1.68206C39.6922 1.99629 39.1281 2.35712 38.5957 2.76111C38.0471 3.17386 37.5677 3.72695 36.9836 4.0884C36.2647 4.5324 35.4879 4.02944 34.7638 3.8207C34.0847 3.62912 33.3896 3.49926 32.687 3.43272C29.8338 3.16375 26.9763 3.9009 24.6116 5.51593C24.0136 5.92613 23.456 6.39208 22.9463 6.9075C22.4219 7.44172 21.9791 8.1204 21.1586 8.14045C20.3381 8.16049 19.527 7.95648 18.7088 7.95058C17.9139 7.94792 17.1203 8.0146 16.337 8.14988C13.2742 8.66523 10.4177 10.2803 8.4343 12.6642C7.47269 13.8188 6.70706 15.1227 6.16776 16.524C5.90198 17.2123 5.69783 17.9226 5.55767 18.6468C5.39688 19.4846 5.31293 20.2264 4.69516 20.865C4.16666 21.411 3.57785 21.8869 3.07772 22.4618C2.57803 23.0347 2.13108 23.6515 1.74227 24.3044C0.547356 26.304 -0.0553279 28.6002 0.00399302 30.9273C0.0633139 33.2544 0.782215 35.5171 2.07747 37.4535C2.50585 38.0945 2.99139 38.6957 3.52819 39.2496C4.0094 39.746 4.76965 38.9883 4.28784 38.4919V38.4954Z" fill="#1D4CF2"/>
<path d="M18.0381 19.3487C20.2943 19.4515 22.4605 20.2616 24.2283 21.6637C24.4541 21.8447 24.7668 21.8842 24.9873 21.6637C25.1753 21.4767 25.2149 21.0882 24.9873 20.9065C23.0099 19.3159 20.5758 18.3951 18.0381 18.2779C17.3471 18.2467 17.3488 19.3175 18.0381 19.3487Z" fill="#1D4CF2"/>
<path d="M20.4084 16.0016C20.1919 17.1114 20.3369 18.2612 20.8222 19.283C20.9404 19.5377 21.3282 19.622 21.557 19.4752C21.8195 19.3066 21.8774 19.0147 21.7497 18.7429C21.7415 18.7258 21.6622 18.5424 21.7013 18.6385C21.6818 18.5919 21.6634 18.5441 21.6457 18.497C21.6063 18.3861 21.5696 18.2737 21.5357 18.1597C21.5038 18.0459 21.4766 17.9309 21.4524 17.8147C21.4417 17.7652 21.4329 17.7151 21.4246 17.665C21.4187 17.632 21.4134 17.5983 21.4086 17.5653C21.4151 17.6154 21.4157 17.6208 21.4086 17.5818C21.3842 17.3551 21.3739 17.127 21.3779 16.899C21.3814 16.7811 21.3909 16.6632 21.4015 16.5452C21.4169 16.3807 21.3826 16.6502 21.4086 16.4863C21.4193 16.4196 21.4311 16.353 21.4435 16.2864C21.4967 16.0122 21.3667 15.6967 21.0687 15.6278C20.8033 15.5688 20.4651 15.7074 20.4084 16.0016Z" fill="#1D4CF2"/>
<path d="M89.403 42.1571C90.9182 41.9979 92.4516 42.4773 93.5695 43.5192C94.0738 43.9909 94.8352 43.2338 94.3286 42.7621C93.018 41.5403 91.1954 40.8982 89.403 41.0863C89.1151 41.1164 88.8662 41.3109 88.8662 41.6217C88.8662 41.8876 89.1133 42.1877 89.403 42.1571Z" fill="#1D4CF2"/>
<path d="M93.363 42.7643C94.0902 41.9187 94.8951 41.1429 95.7673 40.447C95.9878 40.2701 95.9647 39.8703 95.7673 39.6893C95.5308 39.4752 95.2429 39.5018 95.0082 39.6893C94.1361 40.3857 93.331 41.1617 92.6033 42.0072C92.4207 42.2194 92.3787 42.5585 92.6033 42.7643C92.8043 42.9482 93.1673 42.9913 93.363 42.7643Z" fill="#1D4CF2"/>
<path d="M39.6411 3.54804C42.0324 2.72253 44.5916 3.44131 46.6583 4.75976C47.2424 5.13241 47.7815 4.20549 47.2004 3.83519C44.9096 2.37346 41.9981 1.60103 39.3556 2.51498C38.7053 2.73963 38.9855 3.77446 39.6411 3.54804Z" fill="#1D4CF2"/>
<path d="M64.1729 24.6391C63.9825 26.2282 64.2698 27.8326 64.9414 29.2808C65.0638 29.5426 65.4427 29.6087 65.6762 29.4725C65.9458 29.315 65.9913 29.0007 65.8689 28.7401C65.2742 27.4612 65.078 26.0342 65.2453 24.6391C65.2796 24.3514 64.9733 24.1037 64.7079 24.1037C64.3893 24.1037 64.2054 24.3508 64.1711 24.6391H64.1729Z" fill="#1D4CF2"/>
<path d="M62.4712 5.32529C65.6121 3.37297 70.0506 5.85125 70.5619 9.35552C70.6613 10.0354 71.6964 9.74645 71.5977 9.07072C70.9864 4.88128 65.6085 2.1129 61.9291 4.40072C61.3438 4.76454 61.8824 5.69146 62.4712 5.32529Z" fill="#1D4CF2"/>
<path d="M71.219 9.89195C73.6145 9.22481 76.1743 9.48623 78.3845 10.6237C80.5659 11.7546 82.2177 13.7217 83.0039 16.042C83.4454 17.342 83.6093 18.7199 83.4851 20.0869C83.4508 20.4708 83.854 20.6494 84.165 20.6035C86.9027 20.1966 89.7107 21.7432 91.1579 24.0299C92.8214 26.6585 92.7718 30.016 91.6385 32.8333C91.5575 33.0355 91.6899 33.3445 91.8856 33.4383C94.3023 34.5963 95.6307 37.4832 94.8852 40.0629C94.7965 40.369 95.0519 40.7776 95.4031 40.7404C97.6105 40.5081 97.8085 43.6887 97.9008 45.1834C98.0072 46.9182 97.6897 49.2331 95.7891 49.9177C95.3428 50.0781 95.2695 50.6253 95.6608 50.8965C96.6451 51.5711 97.1979 52.8547 96.946 54.0305C96.6966 55.1891 95.769 56.0978 94.6281 56.3849C94.3206 56.4628 94.096 56.8932 94.3076 57.1715C95.7761 59.1368 93.7259 61.3539 92.2788 62.5962C90.6093 64.0261 88.3705 65.2166 86.1164 64.66C85.4454 64.4949 85.1593 65.5274 85.8309 65.6931C88.5355 66.3588 91.1603 64.9949 93.1507 63.2555C94.1238 62.4046 95.0572 61.4229 95.5509 60.2111C96.0197 59.0607 95.9984 57.6544 95.2346 56.6332L94.9136 57.4174C96.4388 57.0329 97.7216 55.7522 98.006 54.1908C98.3045 52.554 97.565 50.9053 96.2029 49.9708L96.0746 50.9496C98.5315 50.0651 99.1339 47.3427 98.9631 45.013C98.8715 43.7706 98.771 42.4021 98.1597 41.2894C97.6217 40.31 96.5582 39.5476 95.4031 39.6691L95.9209 40.3466C96.79 37.3394 95.2659 33.8728 92.4271 32.5125C92.5099 32.7142 92.5923 32.9158 92.6742 33.1175C93.671 30.641 93.8601 27.7517 92.9273 25.2239C92.5018 24.055 91.8346 22.9885 90.9689 22.0936C90.1031 21.1987 89.0583 20.4955 87.9023 20.0297C86.6276 19.521 85.2395 19.3622 83.8824 19.5698L84.5616 20.0863C84.8017 17.4129 83.977 14.6864 82.3388 12.5625C80.6759 10.4061 78.1954 8.98213 75.4996 8.58412C73.9762 8.35253 72.4209 8.44598 70.9364 8.85831C70.2719 9.04522 70.5545 10.0789 71.2219 9.89136L71.219 9.89195Z" fill="#1D4CF2"/>
</svg>
